<svg xmlns="http://www.w3.org/2000/svg" fill="none" viewBox="0 0 363 166" height="166" width="363">
<path fill="black" d="M211.13 61.8448V56.0405H189.439V61.8448H196.305V92.6759H189.193V98.658H211.13V92.6759H204.49V61.8448H211.13Z"></path>
<path fill="black" d="M246.142 56.0405H236.465L216.233 98.658H223.972L229.663 87.2019H252.459L258.744 98.658H266.38L246.142 56.0405ZM232.098 81.0864L241.045 61.9845L250.599 81.0864H232.098Z"></path>
<path fill="black" d="M49.9489 28.429L49.8843 19.2464H45.9697L46.2217 49.0297H50.1104L49.9747 32.8997C51.7188 31.8582 60.8528 26.7335 60.3489 35.1096V49.0233H64.1601V35.1096C64.1537 35.1096 64.7803 20.5799 49.9489 28.429Z"></path>
<path fill="black" d="M34.6588 42.5396V39.5104H34.6523L34.5554 30.8485H41.6029V26.9875H34.5166L34.4262 19.5067H30.5762L30.6085 26.9875H27.7275V30.8485H30.6667L30.783 40.3931C30.7248 41.2187 30.4083 51.5571 41.8613 48.5343V45.0543C41.8613 45.0543 34.6975 46.8197 34.6588 42.5396Z"></path>
<path fill="black" d="M88.9131 36.983C88.9131 31.0327 84.3591 26.2191 78.7456 26.2191C73.1257 26.2191 68.5781 31.0327 68.5781 36.983C68.5781 43.4032 72.5831 48.6804 77.7056 49.3154C78.048 49.3599 78.3839 49.379 78.7521 49.379C78.7521 49.379 83.1576 49.9759 88.5837 46.8832V43.4858C88.5837 43.4858 78.0932 48.6296 74.7536 43.2064C74.7536 43.2064 73.4745 41.4346 73.2808 38.5896H88.9196V36.983H88.9131ZM73.3712 35.3065C73.3712 32.0424 75.968 29.3943 79.1526 29.3943C82.3437 29.3943 84.934 32.0424 84.934 35.3065H73.3712Z"></path>
<path fill="black" d="M281.411 92.6314L281.359 56.0405H273.666L273.711 92.6314V96.3337V98.5754V98.677H281.411H308.542V98.5754V96.3337V92.6314H281.411Z"></path>
<path fill="black" d="M159.608 61.7304C171.881 60.5239 181.913 67.3759 181.913 67.3759V60.3397C181.913 59.7872 181.235 59.5967 181.235 59.5967C153.936 50.0394 143.304 60.9366 140.455 64.9437C137.038 69.5096 136.521 73.9994 136.521 73.9994C133.989 85.0681 141.579 90.9422 141.579 90.9422C157.05 104.354 181.642 96.2448 181.642 96.2448V88.5545C170.796 93.2347 165.609 93.1521 165.544 93.1394C140.713 93.5141 145.022 73.7644 145.022 73.7644C146.805 62.2956 159.608 61.7304 159.608 61.7304Z"></path>
<path fill="black" d="M128.711 76.0379C127.91 56.5422 105.928 55.9643 105.928 55.9643C104.656 55.8817 103.461 55.85 102.304 55.8754L102.453 55.7738C101.943 55.8182 101.465 55.8627 100.987 55.9072C95.9286 56.1548 92.0399 57.4058 89.0943 58.9363C77.2602 64.4294 76.9631 75.2441 77.5574 80.2292C77.622 81.0039 77.7447 81.7342 77.9256 82.4327C77.9772 82.7249 78.016 82.89 78.016 82.89C79.4307 88.237 83.0416 91.0248 83.0416 91.0248C89.8113 96.8989 98.3445 99.0771 105.793 98.7469C130.145 97.6737 128.711 76.0379 128.711 76.0379ZM107.084 93.6412C106.4 93.7237 105.721 93.6412 105.088 93.6221C82.4796 92.9172 86.4652 73.8534 86.4652 73.8534C88.2416 62.3718 101.045 61.8003 101.045 61.8003C102.673 61.6479 104.255 61.6352 105.786 61.7241C105.786 61.7241 120.766 61.0383 120.637 77.6509C120.637 77.6572 121.289 91.9456 107.084 93.6412Z"></path>
<path fill="black" d="M56.3309 75.1996C35.8732 75.3711 36.4933 68.1126 36.4933 68.1126C35.9959 59.438 55.9498 61.9718 55.9498 61.9718C64.2375 62.3274 67.1896 66.163 67.1896 66.163L67.6676 65.7503V59.5777C52.229 52.8082 36.3189 58.1361 36.3189 58.1361C23.8065 63.9404 29.5233 72.4817 29.5233 72.4817C32.0168 79.5751 50.0457 80.2419 50.0457 80.2419C61.3372 80.6991 61.4405 85.9763 61.4405 85.9763C61.518 91.2661 55.8787 92.4219 55.8787 92.4219C40.4789 96.048 28.9484 88.002 28.9484 88.002C27.8309 87.1574 27.7275 88.1163 27.7275 88.1163L27.9859 94.8414C28.8644 97.661 39.3033 98.3024 45.8727 98.4294L45.8146 98.4548C45.8146 98.4548 67.519 100.112 70.0319 87.7925C71.6984 75.3838 56.3309 75.1996 56.3309 75.1996Z"></path>
<path fill="black" d="M308.975 65.7629C305.945 65.7629 303.129 63.534 300.299 60.9811C299.188 60.0031 298.685 58.6442 298.762 56.9423C298.865 54.7577 299.957 52.2112 301.514 49.8362C300.248 50.7824 298.781 51.6714 297.141 52.4716C291.03 55.4118 288.64 53.1066 286.308 50.8903C286.153 50.7316 285.985 50.5855 285.836 50.4268C283.233 47.9755 282.361 42.1776 281.65 37.5164L281.547 36.8623C280.798 31.9281 287.251 28.9307 292.173 27.1081C292.974 26.816 293.717 26.6573 294.402 26.6001C294.266 26.4794 294.105 26.3588 293.982 26.2191L293.129 25.438C292.658 25.6158 291.999 25.7111 291.333 25.457C290.862 25.2729 290.52 24.9109 290.332 24.4283C290.1 23.7742 290.19 23.0756 290.416 22.6946C290.649 22.2437 291.424 21.7103 292.264 21.6214C292.935 21.5579 293.536 21.7992 293.943 22.2945C294.525 22.9804 294.35 23.8885 294.053 24.5362L294.88 25.2983C297.283 27.6225 299.324 26.6382 300.035 26.1619L299.989 26.1175C300.022 26.0921 300.099 26.0222 300.228 25.927C300.803 25.4507 302.567 23.6726 300.971 20.5037L300.493 19.4686C299.783 19.5766 298.904 19.4686 298.407 18.7193C298.052 18.1731 298.013 17.519 298.265 16.8904C298.536 16.2109 299.221 15.5568 299.776 15.4298C300.19 15.3345 300.874 15.4171 301.411 15.8044C301.85 16.1283 302.108 16.5855 302.153 17.1126C302.205 17.8747 301.901 18.478 301.617 18.8463L302.14 19.9576C302.212 20.1037 302.276 20.2307 302.341 20.3704C302.586 19.729 302.929 19.0622 303.419 18.3954C305.383 15.633 310.622 8.30464 315.596 10.6924L316.171 10.9654C320.35 12.9722 325.563 15.4679 327.12 18.7066C327.223 18.9161 327.32 19.1193 327.417 19.3162C328.916 22.3326 330.324 25.184 325.88 30.3278C324.652 31.763 323.38 32.9632 322.107 33.9539C324.756 33.0965 327.449 32.7219 329.529 33.2172C331.177 33.6173 332.352 34.519 332.966 35.8907C335.227 40.8504 336.9 45.6068 332.63 49.2202C328.457 52.7383 324.84 54.364 319.64 51.5508L319.511 51.4555C319.491 51.4428 319.407 51.3666 319.304 51.2523C319.414 51.4301 319.465 51.5444 319.491 51.5825L319.536 51.6714L319.569 51.7667C320.815 57.9964 316.927 61.6479 312.967 64.3849C311.585 65.3565 310.28 65.7629 308.975 65.7629ZM307.101 45.3718C303.697 48.3121 300.215 53.3733 300.067 57.0121C300.009 58.3076 300.383 59.3237 301.178 60.0412C305.751 64.1436 308.71 65.7884 312.224 63.3498C315.04 61.3939 317.624 59.1268 318.303 55.8246C317.095 59.1077 312.573 60.5874 310.486 61.0954C308.419 61.5971 305.487 60.9811 303.122 55.2086C301.669 51.5571 305.286 47.2452 307.101 45.3718ZM309.724 45.0289C309.427 45.0289 309.201 45.1369 308.975 45.3465L308.955 45.3782C308.878 45.429 302.793 50.8713 304.35 54.7323C305.958 58.6886 307.915 60.4159 310.176 59.8507C312.282 59.3364 317.172 57.7615 317.321 54.2751C317.424 51.7413 315.654 48.2994 314.188 46.661C313.962 46.4387 313.742 46.2165 313.529 46.0259C313.219 45.7719 313.038 45.7211 312.967 45.7275C312.269 45.7465 311.585 45.537 310.99 45.3337C310.448 45.1496 310.047 45.0289 309.724 45.0289ZM294.97 27.8575C294.286 27.8575 293.497 27.9908 292.638 28.2957C288.149 29.9722 282.232 32.6584 282.858 36.6655L282.942 37.3259C283.582 41.5616 284.486 47.3595 286.734 49.506C286.902 49.6647 287.07 49.8108 287.212 49.9695C289.499 52.1541 291.288 53.8623 296.566 51.3222C300.984 49.1948 304.053 46.3308 305.118 43.5556C303.536 46.0386 300.267 47.785 298.194 48.9027C297.903 49.0551 297.638 49.1948 297.412 49.3218C296.404 49.887 295.19 49.9759 293.885 49.5885C291.398 48.8455 288.905 46.4578 287.238 43.1746C284.693 38.234 287.283 33.7633 288.543 31.6169C288.659 31.3946 288.775 31.1978 288.872 31.0263C289.932 29.0958 295.526 28.5497 297.36 28.4354C296.747 28.1115 295.952 27.8575 294.97 27.8575ZM322.14 51.265C325.731 52.4716 328.483 51.0427 331.777 48.2613C335.395 45.194 333.993 41.2504 331.803 36.4115C331.338 35.4208 330.473 34.754 329.226 34.4619C325.751 33.6236 319.982 35.6558 316.307 38.215C318.567 36.9385 323.703 34.5508 326.745 37.0465C331.493 40.9647 331.254 44.0002 330.221 45.8608C328.108 49.652 325.35 51.519 322.269 51.2714C322.211 51.265 322.191 51.265 322.14 51.265ZM318.774 48.8519C319.801 49.4552 321.009 49.8933 322.353 50.0076C324.943 50.2172 327.21 48.6232 329.077 45.2575C330.253 43.1619 329.187 40.7297 325.918 38.0435C322.76 35.4398 315.977 39.8915 315.919 39.9486L315.893 39.9677C315.273 40.3233 315.26 40.9393 315.299 41.9871C315.305 42.5523 315.312 43.181 315.15 43.7906C316.074 45.6576 317.598 47.55 318.774 48.8519ZM297.729 29.68C294.854 29.8515 290.591 30.5627 290.016 31.6423C289.906 31.8201 289.79 32.0297 289.654 32.2519C288.44 34.3603 286.153 38.2721 288.394 42.6031C289.919 45.5751 292.102 47.7278 294.253 48.3692C295.216 48.655 296.094 48.6105 296.772 48.2232C296.999 48.0835 297.263 47.9501 297.561 47.785C300.351 46.2863 305.532 43.4921 304.589 39.6374C304.104 37.6307 303.303 35.4398 302.244 33.6173C301.669 32.7409 301.081 31.9471 300.5 31.2549C299.673 30.4103 298.743 29.8452 297.729 29.68ZM306.275 38.8055C306.391 39.1548 306.501 39.5168 306.604 39.8597C307.005 41.3648 306.824 42.9397 306.1 44.5082C306.488 44.197 306.85 43.9049 307.198 43.6382C307.883 43.1111 308.645 42.8317 309.427 42.7936C308.542 41.7648 307.424 40.3423 306.275 38.8055ZM312.295 43.5493C312.637 43.6699 312.896 43.708 313.07 43.689C313.154 43.5112 313.316 43.0095 313.115 42.0315C312.857 40.7234 305.564 30.8676 302.696 27.1653C302.463 26.8605 302.218 26.7081 301.953 26.67C301.643 26.6446 301.352 26.7652 301.152 26.8795L301.184 26.9176C301.172 26.9176 301.094 26.9875 300.984 27.07C300.655 27.3431 300.073 28.0035 300.668 28.8735C303.271 32.6139 310.144 42.1205 311.578 43.2064C311.817 43.2953 312.043 43.4159 312.295 43.5493ZM310.461 35.4779C311.572 37.0465 312.592 38.5452 313.322 39.7073C313.561 38.9707 314.013 38.3229 314.705 37.7958C315.086 37.4974 315.48 37.2116 315.919 36.9195C314.22 37.1798 312.67 36.9195 311.352 36.0812C311.042 35.8971 310.758 35.6875 310.461 35.4779ZM313.232 15.3536C315.396 15.3536 317.805 15.9442 319.943 18.0461C324.026 22.0723 325.292 27.197 322.863 29.7054C322.669 29.8896 322.463 30.1119 322.243 30.3468C320.57 32.1249 317.896 34.9382 315.06 35.7193C317.967 35.5351 321.597 33.3252 324.898 29.4959C328.774 24.9935 327.663 22.7327 326.267 19.875C326.158 19.6718 326.048 19.4559 325.957 19.2464C324.575 16.4204 319.388 13.9311 315.602 12.1276L315.028 11.8418C311.462 10.1272 307.295 15.1821 304.479 19.1257C303.193 20.9356 303.064 22.574 303.239 23.7361C303.917 21.8818 305.958 16.7189 308.038 16.2363C308.232 16.1982 308.452 16.1347 308.678 16.0775C309.769 15.7854 311.41 15.3536 313.232 15.3536ZM306.766 30.1182C308.18 31.6741 310.002 33.0711 311.752 34.1253C315.066 36.1193 319.11 31.8138 321.3 29.5022C321.532 29.2419 321.752 29.0196 321.92 28.8354C323.606 27.1145 322.96 22.8534 319.02 18.9606C315.609 15.5695 311.333 16.7062 309.026 17.3158C308.768 17.3857 308.542 17.4365 308.361 17.4809C307.295 17.735 305.461 21.3356 304.343 24.5489C304.208 25.6031 304.485 26.6827 305.047 27.7495C305.519 28.5052 306.094 29.3117 306.766 30.1182ZM298.943 27.9527C299.001 27.9908 299.066 28.0289 299.117 28.0734C299.117 28.0162 299.117 27.9591 299.117 27.9146C299.066 27.9273 299.001 27.94 298.943 27.9527ZM292.509 22.8915C292.49 22.8915 292.477 22.8915 292.477 22.8915C292.063 22.9105 291.644 23.1963 291.56 23.3106C291.547 23.3805 291.463 23.698 291.56 23.9837C291.644 24.1806 291.76 24.2505 291.837 24.2759C292.212 24.4283 292.593 24.2759 292.787 24.187C292.948 23.8885 293.149 23.3487 292.948 23.101C292.832 22.955 292.69 22.8915 292.509 22.8915ZM300.132 16.6617C300.132 16.6617 300.093 16.6617 300.067 16.6744C299.97 16.7125 299.595 17.0555 299.453 17.4428C299.376 17.6715 299.395 17.8556 299.518 18.0398C299.699 18.3128 300.254 18.2303 300.519 18.1731C300.648 18.0017 300.894 17.6524 300.887 17.2206C300.861 17.0555 300.79 16.9348 300.661 16.8332C300.48 16.7125 300.254 16.6617 300.132 16.6617Z"></path>
<path fill="black" d="M22.688 153.872C20.512 155.92 17.9307 156.944 14.944 156.944C13.28 156.944 11.808 156.656 10.528 156.08C9.248 155.504 8.18133 154.736 7.328 153.776C6.47467 152.816 5.824 151.707 5.376 150.448C4.94933 149.189 4.736 147.877 4.736 146.512C4.736 145.061 4.96 143.739 5.408 142.544C5.87733 141.328 6.528 140.283 7.36 139.408C8.192 138.533 9.17333 137.851 10.304 137.36C11.456 136.869 12.704 136.624 14.048 136.624C14.9653 136.624 15.7973 136.731 16.544 136.944C17.312 137.157 17.984 137.435 18.56 137.776C19.1573 138.117 19.6373 138.512 20 138.96C20.384 139.387 20.6507 139.824 20.8 140.272H23.168C22.848 139.547 22.432 138.875 21.92 138.256C21.4293 137.637 20.8107 137.104 20.064 136.656C19.3173 136.208 18.4427 135.856 17.44 135.6C16.4373 135.344 15.296 135.216 14.016 135.216C12.16 135.216 10.464 135.483 8.928 136.016C7.41333 136.549 6.112 137.317 5.024 138.32C3.936 139.301 3.09333 140.496 2.496 141.904C1.89867 143.291 1.6 144.848 1.6 146.576C1.6 148.069 1.83467 149.531 2.304 150.96C2.79467 152.368 3.54133 153.627 4.544 154.736C5.54667 155.824 6.82667 156.709 8.384 157.392C9.94133 158.053 11.7973 158.384 13.952 158.384C15.3173 158.384 16.5333 158.256 17.6 158C18.688 157.744 19.6267 157.435 20.416 157.072C21.2267 156.688 21.8987 156.283 22.432 155.856C22.9653 155.429 23.3707 155.056 23.648 154.736L22.688 153.872ZM32.7292 141.648C34.2866 141.648 35.4919 141.872 36.3453 142.32C37.1986 142.747 37.8173 143.312 38.2013 144.016C38.6066 144.72 38.8413 145.531 38.9053 146.448C38.9693 147.365 39.0013 148.304 39.0013 149.264V158H36.4093V156.432C35.7906 157.029 35.0013 157.509 34.0413 157.872C33.0813 158.213 32.1213 158.384 31.1613 158.384C30.2439 158.384 29.4333 158.224 28.7293 157.904C28.0253 157.584 27.4386 157.168 26.9693 156.656C26.4999 156.144 26.1479 155.568 25.9133 154.928C25.6786 154.288 25.5613 153.637 25.5613 152.976C25.5613 152.293 25.6893 151.611 25.9453 150.928C26.2013 150.245 26.5853 149.637 27.0973 149.104C27.6093 148.549 28.2386 148.101 28.9852 147.76C29.7319 147.419 30.5853 147.248 31.5453 147.248C32.5053 147.248 33.4119 147.44 34.2653 147.824C35.1399 148.187 35.8546 148.709 36.4093 149.392V148.016C36.4093 146.267 36.1426 144.965 35.6093 144.112C35.0973 143.259 34.1479 142.832 32.7613 142.832C32.1639 142.832 31.6413 142.907 31.1933 143.056C30.7453 143.205 30.3399 143.419 29.9773 143.696C29.6359 143.952 29.3159 144.283 29.0173 144.688C28.7186 145.072 28.4199 145.509 28.1213 146L26.4573 144.336C26.7559 144.016 27.0653 143.696 27.3853 143.376C27.7266 143.056 28.1319 142.768 28.6013 142.512C29.0919 142.256 29.6679 142.053 30.3293 141.904C30.9906 141.733 31.7906 141.648 32.7292 141.648ZM36.4093 151.664C36.3026 151.408 36.1426 151.109 35.9293 150.768C35.7373 150.427 35.4813 150.096 35.1613 149.776C34.8413 149.456 34.4573 149.189 34.0093 148.976C33.5613 148.741 33.0279 148.624 32.4093 148.624C31.7906 148.624 31.2253 148.752 30.7133 149.008C30.2013 149.243 29.7639 149.563 29.4013 149.968C29.0599 150.352 28.7933 150.811 28.6013 151.344C28.4093 151.877 28.3133 152.432 28.3133 153.008C28.3133 153.691 28.4306 154.288 28.6653 154.8C28.9213 155.291 29.2413 155.717 29.6253 156.08C30.0093 156.421 30.4359 156.677 30.9053 156.848C31.3746 157.019 31.8226 157.104 32.2493 157.104C32.6546 157.104 33.0599 157.029 33.4653 156.88C33.8919 156.731 34.2866 156.528 34.6493 156.272C35.0333 155.995 35.3746 155.675 35.6733 155.312C35.9719 154.949 36.2173 154.555 36.4093 154.128V151.664ZM42.5225 142V143.28H45.3065V158H48.0265V143.28H51.8985V142H48.0265V139.312C48.0265 139.056 48.0372 138.757 48.0585 138.416C48.0798 138.053 48.1438 137.723 48.2505 137.424C48.3572 137.104 48.5172 136.837 48.7305 136.624C48.9652 136.411 49.2852 136.304 49.6905 136.304C50.2025 136.304 50.6185 136.517 50.9385 136.944C51.2798 137.371 51.5572 137.808 51.7705 138.256L53.1785 136.752C52.6665 136.24 52.1332 135.856 51.5785 135.6C51.0452 135.344 50.4372 135.216 49.7545 135.216C49.1998 135.216 48.6558 135.312 48.1225 135.504C47.5892 135.696 47.1092 135.995 46.6825 136.4C46.2772 136.784 45.9465 137.285 45.6905 137.904C45.4345 138.523 45.3065 139.248 45.3065 140.08V142H42.5225ZM69.9555 150.704V150.032C69.9555 148.603 69.7528 147.365 69.3475 146.32C68.9422 145.275 68.3875 144.411 67.6835 143.728C67.0008 143.045 66.2008 142.533 65.2835 142.192C64.3662 141.851 63.3955 141.68 62.3715 141.68C61.2835 141.68 60.2808 141.872 59.3635 142.256C58.4462 142.619 57.6462 143.163 56.9635 143.888C56.2808 144.592 55.7475 145.456 55.3635 146.48C54.9795 147.483 54.7875 148.624 54.7875 149.904C54.7875 150.971 54.9475 152.016 55.2675 153.04C55.6088 154.043 56.1102 154.949 56.7715 155.76C57.4542 156.549 58.3075 157.189 59.3315 157.68C60.3768 158.149 61.6035 158.384 63.0115 158.384C64.3768 158.384 65.6355 158.149 66.7875 157.68C67.9395 157.189 68.9422 156.496 69.7955 155.6L68.7715 154.576C68.3235 154.96 67.8968 155.312 67.4915 155.632C67.1075 155.952 66.7128 156.219 66.3075 156.432C65.9022 156.645 65.4755 156.816 65.0275 156.944C64.6008 157.051 64.1208 157.104 63.5875 157.104C62.9902 157.104 62.3502 157.019 61.6675 156.848C61.0062 156.656 60.3875 156.325 59.8115 155.856C59.2355 155.387 58.7555 154.736 58.3715 153.904C57.9875 153.072 57.7955 152.005 57.7955 150.704H69.9555ZM57.7955 149.424C57.7955 148.571 57.8808 147.749 58.0515 146.96C58.2435 146.149 58.5208 145.435 58.8835 144.816C59.2675 144.197 59.7475 143.707 60.3235 143.344C60.8995 142.96 61.5822 142.768 62.3715 142.768C63.8862 142.768 65.0595 143.365 65.8915 144.56C66.7448 145.733 67.1715 147.355 67.1715 149.424H57.7955ZM61.9235 135.216H65.4755L60.5155 139.28H59.2675L61.9235 135.216ZM86.59 147.536C86.59 148.048 86.686 148.528 86.878 148.976C87.07 149.424 87.3367 149.819 87.678 150.16C88.0193 150.501 88.414 150.768 88.862 150.96C89.3313 151.152 89.8327 151.248 90.366 151.248C90.878 151.248 91.358 151.152 91.806 150.96C92.2753 150.768 92.6807 150.501 93.022 150.16C93.3633 149.819 93.63 149.424 93.822 148.976C94.0353 148.528 94.142 148.048 94.142 147.536C94.142 147.003 94.0353 146.501 93.822 146.032C93.63 145.563 93.3633 145.157 93.022 144.816C92.6807 144.475 92.2753 144.208 91.806 144.016C91.358 143.824 90.878 143.728 90.366 143.728C89.8327 143.728 89.3313 143.824 88.862 144.016C88.414 144.208 88.0193 144.475 87.678 144.816C87.3367 145.157 87.07 145.563 86.878 146.032C86.686 146.501 86.59 147.003 86.59 147.536ZM112.996 158H121.028C122.458 158 123.663 157.819 124.644 157.456C125.626 157.072 126.415 156.581 127.012 155.984C127.61 155.387 128.036 154.715 128.292 153.968C128.57 153.2 128.708 152.432 128.708 151.664C128.708 150.448 128.442 149.477 127.908 148.752C127.396 148.027 126.778 147.472 126.052 147.088C125.327 146.704 124.58 146.448 123.812 146.32C123.044 146.192 122.426 146.117 121.956 146.096V145.968C122.703 145.968 123.407 145.829 124.068 145.552C124.73 145.253 125.306 144.88 125.796 144.432C126.308 143.963 126.714 143.429 127.012 142.832C127.311 142.213 127.46 141.563 127.46 140.88C127.46 140.283 127.332 139.675 127.076 139.056C126.82 138.437 126.426 137.872 125.892 137.36C125.38 136.848 124.708 136.432 123.876 136.112C123.066 135.771 122.106 135.6 120.996 135.6H112.996V158ZM115.908 156.592V146.8H119.428C120.474 146.8 121.38 146.939 122.148 147.216C122.916 147.493 123.546 147.867 124.036 148.336C124.548 148.805 124.922 149.349 125.156 149.968C125.412 150.587 125.54 151.237 125.54 151.92C125.54 152.667 125.402 153.328 125.124 153.904C124.868 154.48 124.516 154.971 124.068 155.376C123.62 155.781 123.087 156.091 122.468 156.304C121.871 156.496 121.231 156.592 120.548 156.592H115.908ZM115.908 145.392V137.008H119.812C120.644 137.008 121.348 137.125 121.924 137.36C122.522 137.595 123.002 137.904 123.364 138.288C123.748 138.672 124.026 139.109 124.196 139.6C124.367 140.091 124.452 140.581 124.452 141.072C124.452 141.691 124.324 142.267 124.068 142.8C123.834 143.333 123.492 143.792 123.044 144.176C122.618 144.56 122.116 144.859 121.54 145.072C120.986 145.285 120.388 145.392 119.748 145.392H115.908ZM138.76 141.648C140.318 141.648 141.523 141.872 142.377 142.32C143.23 142.747 143.849 143.312 144.233 144.016C144.638 144.72 144.873 145.531 144.937 146.448C145.001 147.365 145.033 148.304 145.033 149.264V158H142.441V156.432C141.822 157.029 141.033 157.509 140.073 157.872C139.113 158.213 138.153 158.384 137.193 158.384C136.275 158.384 135.465 158.224 134.761 157.904C134.057 157.584 133.47 157.168 133.001 156.656C132.531 156.144 132.179 155.568 131.945 154.928C131.71 154.288 131.593 153.637 131.593 152.976C131.593 152.293 131.721 151.611 131.977 150.928C132.233 150.245 132.617 149.637 133.129 149.104C133.641 148.549 134.27 148.101 135.016 147.76C135.763 147.419 136.617 147.248 137.577 147.248C138.537 147.248 139.443 147.44 140.297 147.824C141.171 148.187 141.886 148.709 142.441 149.392V148.016C142.441 146.267 142.174 144.965 141.641 144.112C141.129 143.259 140.179 142.832 138.793 142.832C138.195 142.832 137.673 142.907 137.225 143.056C136.777 143.205 136.371 143.419 136.009 143.696C135.667 143.952 135.347 144.283 135.049 144.688C134.75 145.072 134.451 145.509 134.153 146L132.489 144.336C132.787 144.016 133.097 143.696 133.417 143.376C133.758 143.056 134.163 142.768 134.633 142.512C135.123 142.256 135.699 142.053 136.361 141.904C137.022 141.733 137.822 141.648 138.76 141.648ZM142.441 151.664C142.334 151.408 142.174 151.109 141.961 150.768C141.769 150.427 141.513 150.096 141.193 149.776C140.873 149.456 140.489 149.189 140.041 148.976C139.593 148.741 139.059 148.624 138.441 148.624C137.822 148.624 137.257 148.752 136.745 149.008C136.233 149.243 135.795 149.563 135.433 149.968C135.091 150.352 134.825 150.811 134.633 151.344C134.441 151.877 134.345 152.432 134.345 153.008C134.345 153.691 134.462 154.288 134.697 154.8C134.953 155.291 135.273 155.717 135.657 156.08C136.041 156.421 136.467 156.677 136.937 156.848C137.406 157.019 137.854 157.104 138.281 157.104C138.686 157.104 139.091 157.029 139.497 156.88C139.923 156.731 140.318 156.528 140.681 156.272C141.065 155.995 141.406 155.675 141.705 155.312C142.003 154.949 142.249 154.555 142.441 154.128V151.664ZM150.154 142V158H152.874V148.336C152.874 147.461 152.97 146.725 153.162 146.128C153.375 145.509 153.642 145.008 153.962 144.624C154.282 144.24 154.634 143.963 155.018 143.792C155.402 143.621 155.775 143.536 156.138 143.536C156.628 143.536 157.076 143.696 157.482 144.016C157.908 144.336 158.218 144.635 158.41 144.912L159.498 142.928C159.306 142.672 159.071 142.459 158.794 142.288C158.538 142.117 158.271 141.989 157.994 141.904C157.738 141.797 157.492 141.733 157.258 141.712C157.044 141.669 156.884 141.648 156.778 141.648C155.882 141.648 155.135 141.893 154.538 142.384C153.94 142.875 153.45 143.6 153.066 144.56H152.874V142H150.154ZM174.84 147.536C174.84 148.048 174.936 148.528 175.128 148.976C175.32 149.424 175.587 149.819 175.928 150.16C176.269 150.501 176.664 150.768 177.112 150.96C177.581 151.152 178.083 151.248 178.616 151.248C179.128 151.248 179.608 151.152 180.056 150.96C180.525 150.768 180.931 150.501 181.272 150.16C181.613 149.819 181.88 149.424 182.072 148.976C182.285 148.528 182.392 148.048 182.392 147.536C182.392 147.003 182.285 146.501 182.072 146.032C181.88 145.563 181.613 145.157 181.272 144.816C180.931 144.475 180.525 144.208 180.056 144.016C179.608 143.824 179.128 143.728 178.616 143.728C178.083 143.728 177.581 143.824 177.112 144.016C176.664 144.208 176.269 144.475 175.928 144.816C175.587 145.157 175.32 145.563 175.128 146.032C174.936 146.501 174.84 147.003 174.84 147.536ZM201.246 135.6V158H204.158V148.112H205.566C206.164 148.112 206.654 148.165 207.038 148.272C207.444 148.379 207.806 148.56 208.126 148.816C208.446 149.072 208.745 149.403 209.022 149.808C209.3 150.213 209.63 150.715 210.014 151.312L212.542 155.056C212.862 155.547 213.172 155.995 213.47 156.4C213.79 156.805 214.132 157.157 214.494 157.456C214.857 157.733 215.262 157.957 215.71 158.128C216.18 158.299 216.734 158.384 217.374 158.384C217.844 158.384 218.228 158.363 218.526 158.32C218.825 158.277 219.124 158.171 219.422 158V156.816C219.316 156.837 219.209 156.859 219.102 156.88C218.996 156.88 218.889 156.88 218.782 156.88C218.334 156.88 217.94 156.816 217.598 156.688C217.257 156.56 216.937 156.379 216.638 156.144C216.34 155.888 216.052 155.589 215.774 155.248C215.497 154.885 215.209 154.48 214.91 154.032C214.014 152.731 213.321 151.696 212.83 150.928C212.34 150.139 211.945 149.531 211.646 149.104C211.369 148.677 211.134 148.368 210.942 148.176C210.772 147.984 210.558 147.824 210.302 147.696L209.982 147.536V147.408C211.006 147.344 211.881 147.12 212.606 146.736C213.353 146.352 213.961 145.872 214.43 145.296C214.9 144.72 215.241 144.101 215.454 143.44C215.668 142.757 215.774 142.096 215.774 141.456C215.774 140.88 215.657 140.251 215.422 139.568C215.209 138.885 214.825 138.256 214.27 137.68C213.737 137.083 213.001 136.592 212.062 136.208C211.124 135.803 209.94 135.6 208.51 135.6H201.246ZM204.158 137.008H207.39C208.201 137.008 208.926 137.125 209.566 137.36C210.228 137.595 210.793 137.925 211.262 138.352C211.732 138.757 212.084 139.248 212.318 139.824C212.574 140.4 212.702 141.029 212.702 141.712C212.702 142.288 212.585 142.875 212.35 143.472C212.137 144.048 211.806 144.581 211.358 145.072C210.91 145.541 210.356 145.925 209.694 146.224C209.054 146.523 208.308 146.672 207.454 146.672H204.158V137.008ZM237.143 150.704V150.032C237.143 148.603 236.94 147.365 236.535 146.32C236.13 145.275 235.575 144.411 234.871 143.728C234.188 143.045 233.388 142.533 232.471 142.192C231.554 141.851 230.583 141.68 229.559 141.68C228.471 141.68 227.468 141.872 226.551 142.256C225.634 142.619 224.834 143.163 224.151 143.888C223.468 144.592 222.935 145.456 222.551 146.48C222.167 147.483 221.975 148.624 221.975 149.904C221.975 150.971 222.135 152.016 222.455 153.04C222.796 154.043 223.298 154.949 223.959 155.76C224.642 156.549 225.495 157.189 226.519 157.68C227.564 158.149 228.791 158.384 230.199 158.384C231.564 158.384 232.823 158.149 233.975 157.68C235.127 157.189 236.13 156.496 236.983 155.6L235.959 154.576C235.511 154.96 235.084 155.312 234.679 155.632C234.295 155.952 233.9 156.219 233.495 156.432C233.09 156.645 232.663 156.816 232.215 156.944C231.788 157.051 231.308 157.104 230.775 157.104C230.178 157.104 229.538 157.019 228.855 156.848C228.194 156.656 227.575 156.325 226.999 155.856C226.423 155.387 225.943 154.736 225.559 153.904C225.175 153.072 224.983 152.005 224.983 150.704H237.143ZM224.983 149.424C224.983 148.571 225.068 147.749 225.239 146.96C225.431 146.149 225.708 145.435 226.071 144.816C226.455 144.197 226.935 143.707 227.511 143.344C228.087 142.96 228.77 142.768 229.559 142.768C231.074 142.768 232.247 143.365 233.079 144.56C233.932 145.733 234.359 147.355 234.359 149.424H224.983ZM251.518 145.648C251.518 145.072 251.369 144.539 251.07 144.048C250.771 143.557 250.355 143.141 249.822 142.8C249.31 142.437 248.702 142.16 247.998 141.968C247.315 141.755 246.579 141.648 245.79 141.648C245.043 141.648 244.339 141.744 243.678 141.936C243.038 142.128 242.473 142.416 241.982 142.8C241.513 143.184 241.139 143.664 240.862 144.24C240.585 144.795 240.446 145.445 240.446 146.192C240.446 147.216 240.681 148.027 241.15 148.624C241.619 149.221 242.206 149.701 242.91 150.064C243.614 150.427 244.371 150.725 245.182 150.96C246.014 151.173 246.782 151.419 247.486 151.696C248.19 151.952 248.777 152.283 249.246 152.688C249.715 153.093 249.95 153.648 249.95 154.352C249.95 154.651 249.897 154.96 249.79 155.28C249.705 155.6 249.534 155.899 249.278 156.176C249.022 156.432 248.67 156.656 248.222 156.848C247.774 157.019 247.209 157.104 246.526 157.104C245.673 157.104 244.947 156.976 244.35 156.72C243.774 156.443 243.294 156.123 242.91 155.76C242.547 155.376 242.281 154.992 242.11 154.608C241.961 154.224 241.886 153.904 241.886 153.648H239.806C239.806 154.245 239.945 154.832 240.222 155.408C240.499 155.963 240.915 156.464 241.47 156.912C242.046 157.36 242.739 157.723 243.55 158C244.382 158.256 245.342 158.384 246.43 158.384C248.393 158.384 249.865 157.957 250.846 157.104C251.849 156.229 252.35 155.088 252.35 153.68C252.35 152.656 252.105 151.835 251.614 151.216C251.145 150.597 250.547 150.107 249.822 149.744C249.097 149.36 248.307 149.051 247.454 148.816C246.622 148.581 245.843 148.336 245.118 148.08C244.393 147.824 243.785 147.515 243.294 147.152C242.825 146.789 242.59 146.277 242.59 145.616C242.59 145.339 242.643 145.051 242.75 144.752C242.857 144.432 243.038 144.144 243.294 143.888C243.55 143.611 243.891 143.387 244.318 143.216C244.745 143.024 245.278 142.928 245.918 142.928C246.558 142.928 247.113 143.024 247.582 143.216C248.051 143.387 248.446 143.611 248.766 143.888C249.086 144.144 249.321 144.432 249.47 144.752C249.619 145.072 249.694 145.371 249.694 145.648H251.518ZM255.085 143.28V142H257.869V137.072H260.589V142H264.461V143.28H260.589V153.904C260.589 154.16 260.6 154.459 260.621 154.8C260.642 155.12 260.706 155.429 260.813 155.728C260.92 156.005 261.08 156.24 261.293 156.432C261.528 156.624 261.848 156.72 262.253 156.72C262.765 156.72 263.192 156.528 263.533 156.144C263.874 155.76 264.152 155.344 264.365 154.896L265.869 156.432C264.824 157.477 263.64 158 262.317 158C261.762 158 261.218 157.904 260.685 157.712C260.152 157.52 259.672 157.232 259.245 156.848C258.84 156.443 258.509 155.931 258.253 155.312C257.997 154.693 257.869 153.968 257.869 153.136V143.28H255.085ZM274.573 141.648C276.13 141.648 277.336 141.872 278.189 142.32C279.042 142.747 279.661 143.312 280.045 144.016C280.45 144.72 280.685 145.531 280.749 146.448C280.813 147.365 280.845 148.304 280.845 149.264V158H278.253V156.432C277.634 157.029 276.845 157.509 275.885 157.872C274.925 158.213 273.965 158.384 273.005 158.384C272.088 158.384 271.277 158.224 270.573 157.904C269.869 157.584 269.282 157.168 268.813 156.656C268.344 156.144 267.992 155.568 267.757 154.928C267.522 154.288 267.405 153.637 267.405 152.976C267.405 152.293 267.533 151.611 267.789 150.928C268.045 150.245 268.429 149.637 268.941 149.104C269.453 148.549 270.082 148.101 270.829 147.76C271.576 147.419 272.429 147.248 273.389 147.248C274.349 147.248 275.256 147.44 276.109 147.824C276.984 148.187 277.698 148.709 278.253 149.392V148.016C278.253 146.267 277.986 144.965 277.453 144.112C276.941 143.259 275.992 142.832 274.605 142.832C274.008 142.832 273.485 142.907 273.037 143.056C272.589 143.205 272.184 143.419 271.821 143.696C271.48 143.952 271.16 144.283 270.861 144.688C270.562 145.072 270.264 145.509 269.965 146L268.301 144.336C268.6 144.016 268.909 143.696 269.229 143.376C269.57 143.056 269.976 142.768 270.445 142.512C270.936 142.256 271.512 142.053 272.173 141.904C272.834 141.733 273.634 141.648 274.573 141.648ZM278.253 151.664C278.146 151.408 277.986 151.109 277.773 150.768C277.581 150.427 277.325 150.096 277.005 149.776C276.685 149.456 276.301 149.189 275.853 148.976C275.405 148.741 274.872 148.624 274.253 148.624C273.634 148.624 273.069 148.752 272.557 149.008C272.045 149.243 271.608 149.563 271.245 149.968C270.904 150.352 270.637 150.811 270.445 151.344C270.253 151.877 270.157 152.432 270.157 153.008C270.157 153.691 270.274 154.288 270.509 154.8C270.765 155.291 271.085 155.717 271.469 156.08C271.853 156.421 272.28 156.677 272.749 156.848C273.218 157.019 273.666 157.104 274.093 157.104C274.498 157.104 274.904 157.029 275.309 156.88C275.736 156.731 276.13 156.528 276.493 156.272C276.877 155.995 277.218 155.675 277.517 155.312C277.816 154.949 278.061 154.555 278.253 154.128V151.664ZM285.966 142V152.4C285.966 152.784 285.998 153.317 286.062 154C286.148 154.661 286.372 155.323 286.734 155.984C287.097 156.624 287.662 157.189 288.43 157.68C289.22 158.149 290.318 158.384 291.726 158.384C292.345 158.405 293.017 158.277 293.742 158C294.489 157.744 295.236 157.243 295.982 156.496L296.494 155.984H296.622V158H299.342V142H296.622V151.92C296.622 152.752 296.505 153.467 296.27 154.064C296.036 154.661 295.726 155.163 295.342 155.568C294.958 155.952 294.51 156.24 293.998 156.432C293.486 156.624 292.953 156.72 292.398 156.72C291.502 156.72 290.798 156.549 290.286 156.208C289.796 155.845 289.422 155.429 289.166 154.96C288.932 154.491 288.793 154.032 288.75 153.584C288.708 153.115 288.686 152.773 288.686 152.56V142H285.966ZM304.56 142V158H307.28V148.336C307.28 147.461 307.376 146.725 307.568 146.128C307.781 145.509 308.048 145.008 308.368 144.624C308.688 144.24 309.04 143.963 309.424 143.792C309.808 143.621 310.181 143.536 310.544 143.536C311.035 143.536 311.483 143.696 311.888 144.016C312.315 144.336 312.624 144.635 312.816 144.912L313.904 142.928C313.712 142.672 313.477 142.459 313.2 142.288C312.944 142.117 312.677 141.989 312.4 141.904C312.144 141.797 311.899 141.733 311.664 141.712C311.451 141.669 311.291 141.648 311.184 141.648C310.288 141.648 309.541 141.893 308.944 142.384C308.347 142.875 307.856 143.6 307.472 144.56H307.28V142H304.56ZM322.667 141.648C324.224 141.648 325.429 141.872 326.283 142.32C327.136 142.747 327.755 143.312 328.139 144.016C328.544 144.72 328.779 145.531 328.843 146.448C328.907 147.365 328.939 148.304 328.939 149.264V158H326.347V156.432C325.728 157.029 324.939 157.509 323.979 157.872C323.019 158.213 322.059 158.384 321.099 158.384C320.181 158.384 319.371 158.224 318.667 157.904C317.963 157.584 317.376 157.168 316.907 156.656C316.437 156.144 316.085 155.568 315.851 154.928C315.616 154.288 315.499 153.637 315.499 152.976C315.499 152.293 315.627 151.611 315.883 150.928C316.139 150.245 316.523 149.637 317.035 149.104C317.547 148.549 318.176 148.101 318.923 147.76C319.669 147.419 320.523 147.248 321.483 147.248C322.443 147.248 323.349 147.44 324.203 147.824C325.077 148.187 325.792 148.709 326.347 149.392V148.016C326.347 146.267 326.08 144.965 325.547 144.112C325.035 143.259 324.085 142.832 322.699 142.832C322.101 142.832 321.579 142.907 321.131 143.056C320.683 143.205 320.277 143.419 319.915 143.696C319.573 143.952 319.253 144.283 318.955 144.688C318.656 145.072 318.357 145.509 318.059 146L316.395 144.336C316.693 144.016 317.003 143.696 317.323 143.376C317.664 143.056 318.069 142.768 318.539 142.512C319.029 142.256 319.605 142.053 320.267 141.904C320.928 141.733 321.728 141.648 322.667 141.648ZM326.347 151.664C326.24 151.408 326.08 151.109 325.867 150.768C325.675 150.427 325.419 150.096 325.099 149.776C324.779 149.456 324.395 149.189 323.947 148.976C323.499 148.741 322.965 148.624 322.347 148.624C321.728 148.624 321.163 148.752 320.651 149.008C320.139 149.243 319.701 149.563 319.339 149.968C318.997 150.352 318.731 150.811 318.539 151.344C318.347 151.877 318.251 152.432 318.251 153.008C318.251 153.691 318.368 154.288 318.603 154.8C318.859 155.291 319.179 155.717 319.563 156.08C319.947 156.421 320.373 156.677 320.843 156.848C321.312 157.019 321.76 157.104 322.187 157.104C322.592 157.104 322.997 157.029 323.403 156.88C323.829 156.731 324.224 156.528 324.587 156.272C324.971 155.995 325.312 155.675 325.611 155.312C325.909 154.949 326.155 154.555 326.347 154.128V151.664ZM347.436 158V147.632C347.436 147.248 347.404 146.725 347.34 146.064C347.276 145.381 347.063 144.72 346.7 144.08C346.359 143.419 345.804 142.853 345.036 142.384C344.268 141.893 343.18 141.648 341.772 141.648C341.153 141.627 340.46 141.755 339.692 142.032C338.924 142.288 338.167 142.789 337.42 143.536L336.908 144.048H336.78V142H334.06V158H336.78V148.112C336.78 147.28 336.897 146.565 337.132 145.968C337.367 145.371 337.687 144.869 338.092 144.464C338.497 144.059 338.956 143.76 339.468 143.568C340.001 143.376 340.545 143.28 341.1 143.28C341.996 143.28 342.689 143.461 343.18 143.824C343.671 144.165 344.023 144.571 344.236 145.04C344.471 145.509 344.609 145.979 344.652 146.448C344.695 146.917 344.716 147.259 344.716 147.472V158H347.436ZM351.054 143.28V142H353.838V137.072H356.558V142H360.43V143.28H356.558V153.904C356.558 154.16 356.568 154.459 356.59 154.8C356.611 155.12 356.675 155.429 356.782 155.728C356.888 156.005 357.048 156.24 357.262 156.432C357.496 156.624 357.816 156.72 358.222 156.72C358.734 156.72 359.16 156.528 359.502 156.144C359.843 155.76 360.12 155.344 360.334 154.896L361.838 156.432C360.792 157.477 359.608 158 358.286 158C357.731 158 357.187 157.904 356.654 157.712C356.12 157.52 355.64 157.232 355.214 156.848C354.808 156.443 354.478 155.931 354.222 155.312C353.966 154.693 353.838 153.968 353.838 153.136V143.28H351.054Z"></path>
</svg>
